<mxfile host="app.diagrams.net" agent="Mozilla/5.0 (X11; Linux x86_64) AppleWebKit/537.36 (KHTML, like Gecko) Chrome/135.0.0.0 Safari/537.36" version="27.1.1" pages="5">
  <diagram name="ownPath" id="YaNi0q3uSTH3SKvOgGsb">
    <mxGraphModel dx="730" dy="487" grid="1" gridSize="10" guides="1" tooltips="1" connect="1" arrows="1" fold="1" page="1" pageScale="1" pageWidth="1169" pageHeight="827" math="0" shadow="0">
      <root>
        <mxCell id="0" />
        <mxCell id="1" parent="0" />
        <mxCell id="DiGOYPERcLBxTuMjYQXi-53" value="" style="rounded=0;whiteSpace=wrap;html=1;" vertex="1" parent="1">
          <mxGeometry x="40" y="40" width="600" height="360" as="geometry" />
        </mxCell>
        <mxCell id="DiGOYPERcLBxTuMjYQXi-5" value="" style="rounded=1;whiteSpace=wrap;html=1;fillColor=#FFB570;strokeColor=#666666;arcSize=0;fontColor=#333333;" vertex="1" parent="1">
          <mxGeometry x="140" y="250" width="20" height="20" as="geometry" />
        </mxCell>
        <mxCell id="DiGOYPERcLBxTuMjYQXi-7" value="" style="rounded=1;whiteSpace=wrap;html=1;fillColor=#FFB570;strokeColor=#666666;arcSize=0;fontColor=#333333;" vertex="1" parent="1">
          <mxGeometry x="140" y="210" width="20" height="20" as="geometry" />
        </mxCell>
        <mxCell id="DiGOYPERcLBxTuMjYQXi-8" value="" style="rounded=1;whiteSpace=wrap;html=1;fillColor=#FFB570;strokeColor=#666666;arcSize=0;fontColor=#333333;" vertex="1" parent="1">
          <mxGeometry x="240" y="290" width="20" height="20" as="geometry" />
        </mxCell>
        <mxCell id="DiGOYPERcLBxTuMjYQXi-9" value="" style="rounded=1;whiteSpace=wrap;html=1;fillColor=#FFB570;strokeColor=#666666;arcSize=0;fontColor=#333333;" vertex="1" parent="1">
          <mxGeometry x="240" y="250" width="20" height="20" as="geometry" />
        </mxCell>
        <mxCell id="DiGOYPERcLBxTuMjYQXi-10" value="" style="rounded=1;whiteSpace=wrap;html=1;fillColor=#FFB570;strokeColor=#666666;arcSize=0;fontColor=#333333;" vertex="1" parent="1">
          <mxGeometry x="240" y="210" width="20" height="20" as="geometry" />
        </mxCell>
        <mxCell id="DiGOYPERcLBxTuMjYQXi-11" value="" style="rounded=1;whiteSpace=wrap;html=1;fillColor=#FFB570;strokeColor=#666666;arcSize=0;fontColor=#333333;" vertex="1" parent="1">
          <mxGeometry x="190" y="190" width="20" height="20" as="geometry" />
        </mxCell>
        <mxCell id="DiGOYPERcLBxTuMjYQXi-12" value="" style="rounded=1;whiteSpace=wrap;html=1;fillColor=#FFB570;strokeColor=#666666;arcSize=0;fontColor=#333333;" vertex="1" parent="1">
          <mxGeometry x="190" y="150" width="20" height="20" as="geometry" />
        </mxCell>
        <mxCell id="DiGOYPERcLBxTuMjYQXi-13" value="" style="rounded=1;whiteSpace=wrap;html=1;fillColor=#FFB570;strokeColor=#666666;arcSize=0;fontColor=#333333;" vertex="1" parent="1">
          <mxGeometry x="240" y="170" width="20" height="20" as="geometry" />
        </mxCell>
        <mxCell id="DiGOYPERcLBxTuMjYQXi-14" value="" style="rounded=1;whiteSpace=wrap;html=1;fillColor=#FFB570;strokeColor=#666666;arcSize=0;fontColor=#333333;" vertex="1" parent="1">
          <mxGeometry x="190" y="270" width="20" height="20" as="geometry" />
        </mxCell>
        <mxCell id="DiGOYPERcLBxTuMjYQXi-15" value="" style="rounded=1;whiteSpace=wrap;html=1;fillColor=#FFB570;strokeColor=#666666;arcSize=0;fontColor=#333333;" vertex="1" parent="1">
          <mxGeometry x="190" y="230" width="20" height="20" as="geometry" />
        </mxCell>
        <mxCell id="DiGOYPERcLBxTuMjYQXi-16" value="" style="rounded=1;whiteSpace=wrap;html=1;fillColor=#FFB570;strokeColor=#666666;arcSize=0;fontColor=#333333;" vertex="1" parent="1">
          <mxGeometry x="240" y="130" width="20" height="20" as="geometry" />
        </mxCell>
        <mxCell id="DiGOYPERcLBxTuMjYQXi-17" value="" style="rounded=1;whiteSpace=wrap;html=1;fillColor=#FFB570;strokeColor=#666666;arcSize=0;fontColor=#333333;" vertex="1" parent="1">
          <mxGeometry x="140" y="170" width="20" height="20" as="geometry" />
        </mxCell>
        <mxCell id="DiGOYPERcLBxTuMjYQXi-18" value="" style="rounded=1;whiteSpace=wrap;html=1;fillColor=#FFB570;strokeColor=#666666;arcSize=0;fontColor=#333333;" vertex="1" parent="1">
          <mxGeometry x="90" y="230" width="20" height="20" as="geometry" />
        </mxCell>
        <mxCell id="DiGOYPERcLBxTuMjYQXi-19" value="" style="rounded=1;whiteSpace=wrap;html=1;fillColor=#FFB570;strokeColor=#666666;arcSize=0;fontColor=#333333;" vertex="1" parent="1">
          <mxGeometry x="90" y="190" width="20" height="20" as="geometry" />
        </mxCell>
        <mxCell id="DiGOYPERcLBxTuMjYQXi-24" value="" style="endArrow=none;dashed=1;html=1;dashPattern=1 3;strokeWidth=3;rounded=0;fillColor=#d5e8d4;strokeColor=#82b366;" edge="1" parent="1">
          <mxGeometry width="50" height="50" relative="1" as="geometry">
            <mxPoint x="320" y="159.52" as="sourcePoint" />
            <mxPoint x="360" y="159.52" as="targetPoint" />
          </mxGeometry>
        </mxCell>
        <mxCell id="DiGOYPERcLBxTuMjYQXi-25" value="" style="endArrow=none;dashed=1;html=1;dashPattern=1 3;strokeWidth=3;rounded=0;fillColor=#d5e8d4;strokeColor=#82b366;" edge="1" parent="1">
          <mxGeometry width="50" height="50" relative="1" as="geometry">
            <mxPoint x="320" y="219.76000000000002" as="sourcePoint" />
            <mxPoint x="360" y="219.76000000000002" as="targetPoint" />
          </mxGeometry>
        </mxCell>
        <mxCell id="DiGOYPERcLBxTuMjYQXi-26" value="" style="endArrow=none;dashed=1;html=1;dashPattern=1 3;strokeWidth=3;rounded=0;fillColor=#d5e8d4;strokeColor=#82b366;" edge="1" parent="1">
          <mxGeometry width="50" height="50" relative="1" as="geometry">
            <mxPoint x="320" y="290" as="sourcePoint" />
            <mxPoint x="360" y="290" as="targetPoint" />
          </mxGeometry>
        </mxCell>
        <mxCell id="DiGOYPERcLBxTuMjYQXi-27" value="time" style="text;html=1;align=center;verticalAlign=middle;whiteSpace=wrap;rounded=0;" vertex="1" parent="1">
          <mxGeometry x="210" y="350" width="60" height="20" as="geometry" />
        </mxCell>
        <mxCell id="DiGOYPERcLBxTuMjYQXi-30" value="" style="endArrow=classic;html=1;rounded=0;entryX=0.5;entryY=1;entryDx=0;entryDy=0;" edge="1" parent="1" target="DiGOYPERcLBxTuMjYQXi-18">
          <mxGeometry width="50" height="50" relative="1" as="geometry">
            <mxPoint x="100" y="300" as="sourcePoint" />
            <mxPoint x="100" y="230" as="targetPoint" />
          </mxGeometry>
        </mxCell>
        <mxCell id="DiGOYPERcLBxTuMjYQXi-21" value="" style="endArrow=classic;html=1;rounded=0;strokeWidth=3;" edge="1" parent="1">
          <mxGeometry width="50" height="50" relative="1" as="geometry">
            <mxPoint x="80" y="350" as="sourcePoint" />
            <mxPoint x="400" y="350" as="targetPoint" />
          </mxGeometry>
        </mxCell>
        <mxCell id="DiGOYPERcLBxTuMjYQXi-22" value="" style="endArrow=none;html=1;rounded=0;strokeWidth=4;" edge="1" parent="1">
          <mxGeometry width="50" height="50" relative="1" as="geometry">
            <mxPoint x="80" y="100" as="sourcePoint" />
            <mxPoint x="80" y="350" as="targetPoint" />
          </mxGeometry>
        </mxCell>
        <mxCell id="DiGOYPERcLBxTuMjYQXi-31" value="starting point,&lt;div&gt;my background&lt;/div&gt;" style="text;html=1;align=center;verticalAlign=middle;whiteSpace=wrap;rounded=0;fontSize=10;" vertex="1" parent="1">
          <mxGeometry x="90" y="300" width="90" height="20" as="geometry" />
        </mxCell>
        <mxCell id="DiGOYPERcLBxTuMjYQXi-35" value="" style="endArrow=classic;html=1;rounded=0;strokeColor=#67AB9F;strokeWidth=1;exitX=1;exitY=0.5;exitDx=0;exitDy=0;entryX=0;entryY=0.5;entryDx=0;entryDy=0;" edge="1" parent="1" source="DiGOYPERcLBxTuMjYQXi-5" target="DiGOYPERcLBxTuMjYQXi-15">
          <mxGeometry width="50" height="50" relative="1" as="geometry">
            <mxPoint x="120" y="220" as="sourcePoint" />
            <mxPoint x="150" y="200" as="targetPoint" />
          </mxGeometry>
        </mxCell>
        <mxCell id="DiGOYPERcLBxTuMjYQXi-37" value="" style="endArrow=classic;html=1;rounded=0;strokeColor=#67AB9F;strokeWidth=1;exitX=1;exitY=0.5;exitDx=0;exitDy=0;entryX=0;entryY=0.5;entryDx=0;entryDy=0;" edge="1" parent="1" source="DiGOYPERcLBxTuMjYQXi-15" target="DiGOYPERcLBxTuMjYQXi-10">
          <mxGeometry width="50" height="50" relative="1" as="geometry">
            <mxPoint x="240" y="200" as="sourcePoint" />
            <mxPoint x="270" y="180" as="targetPoint" />
          </mxGeometry>
        </mxCell>
        <mxCell id="DiGOYPERcLBxTuMjYQXi-39" value="" style="endArrow=classic;html=1;rounded=0;strokeColor=#67AB9F;strokeWidth=1;exitX=1;exitY=0.5;exitDx=0;exitDy=0;entryX=0;entryY=0.5;entryDx=0;entryDy=0;" edge="1" parent="1" source="DiGOYPERcLBxTuMjYQXi-18" target="DiGOYPERcLBxTuMjYQXi-5">
          <mxGeometry width="50" height="50" relative="1" as="geometry">
            <mxPoint x="140" y="240" as="sourcePoint" />
            <mxPoint x="170" y="260" as="targetPoint" />
          </mxGeometry>
        </mxCell>
        <mxCell id="DiGOYPERcLBxTuMjYQXi-40" value="" style="endArrow=classic;html=1;rounded=0;strokeColor=#808080;strokeWidth=1;exitX=1;exitY=0.5;exitDx=0;exitDy=0;entryX=0;entryY=0.5;entryDx=0;entryDy=0;" edge="1" parent="1" source="DiGOYPERcLBxTuMjYQXi-17" target="DiGOYPERcLBxTuMjYQXi-11">
          <mxGeometry width="50" height="50" relative="1" as="geometry">
            <mxPoint x="130" y="250" as="sourcePoint" />
            <mxPoint x="160" y="270" as="targetPoint" />
          </mxGeometry>
        </mxCell>
        <mxCell id="DiGOYPERcLBxTuMjYQXi-41" value="" style="endArrow=classic;html=1;rounded=0;strokeColor=#808080;strokeWidth=1;exitX=1;exitY=0.5;exitDx=0;exitDy=0;entryX=0;entryY=0.5;entryDx=0;entryDy=0;" edge="1" parent="1" source="DiGOYPERcLBxTuMjYQXi-19" target="DiGOYPERcLBxTuMjYQXi-17">
          <mxGeometry width="50" height="50" relative="1" as="geometry">
            <mxPoint x="190" y="270" as="sourcePoint" />
            <mxPoint x="220" y="250" as="targetPoint" />
          </mxGeometry>
        </mxCell>
        <mxCell id="DiGOYPERcLBxTuMjYQXi-55" value="" style="rounded=1;whiteSpace=wrap;html=1;fillColor=#FFB570;strokeColor=#666666;arcSize=0;fontColor=#333333;" vertex="1" parent="1">
          <mxGeometry x="290" y="110" width="20" height="20" as="geometry" />
        </mxCell>
        <mxCell id="DiGOYPERcLBxTuMjYQXi-56" value="" style="rounded=1;whiteSpace=wrap;html=1;fillColor=#FFB570;strokeColor=#666666;arcSize=0;fontColor=#333333;" vertex="1" parent="1">
          <mxGeometry x="290" y="150" width="20" height="20" as="geometry" />
        </mxCell>
        <mxCell id="DiGOYPERcLBxTuMjYQXi-57" value="" style="rounded=1;whiteSpace=wrap;html=1;fillColor=#FFB570;strokeColor=#666666;arcSize=0;fontColor=#333333;" vertex="1" parent="1">
          <mxGeometry x="290" y="190" width="20" height="20" as="geometry" />
        </mxCell>
        <mxCell id="DiGOYPERcLBxTuMjYQXi-58" value="" style="rounded=1;whiteSpace=wrap;html=1;fillColor=#FFB570;strokeColor=#666666;arcSize=0;fontColor=#333333;" vertex="1" parent="1">
          <mxGeometry x="290" y="230" width="20" height="20" as="geometry" />
        </mxCell>
        <mxCell id="DiGOYPERcLBxTuMjYQXi-59" value="" style="rounded=1;whiteSpace=wrap;html=1;fillColor=#FFB570;strokeColor=#666666;arcSize=0;fontColor=#333333;" vertex="1" parent="1">
          <mxGeometry x="290" y="280" width="20" height="20" as="geometry" />
        </mxCell>
        <mxCell id="DiGOYPERcLBxTuMjYQXi-60" value="" style="rounded=1;whiteSpace=wrap;html=1;fillColor=#FFB570;strokeColor=#666666;arcSize=0;fontColor=#333333;" vertex="1" parent="1">
          <mxGeometry x="290" y="320" width="20" height="20" as="geometry" />
        </mxCell>
        <mxCell id="DiGOYPERcLBxTuMjYQXi-62" value="" style="endArrow=classic;html=1;rounded=0;strokeColor=#808080;strokeWidth=1;exitX=1;exitY=0.5;exitDx=0;exitDy=0;entryX=0;entryY=0.5;entryDx=0;entryDy=0;" edge="1" parent="1" source="DiGOYPERcLBxTuMjYQXi-11" target="DiGOYPERcLBxTuMjYQXi-13">
          <mxGeometry width="50" height="50" relative="1" as="geometry">
            <mxPoint x="190" y="200" as="sourcePoint" />
            <mxPoint x="220" y="220" as="targetPoint" />
          </mxGeometry>
        </mxCell>
        <mxCell id="DiGOYPERcLBxTuMjYQXi-63" value="" style="endArrow=classic;html=1;rounded=0;strokeColor=#808080;strokeWidth=1;exitX=1;exitY=0.5;exitDx=0;exitDy=0;entryX=0;entryY=0.5;entryDx=0;entryDy=0;" edge="1" parent="1" source="DiGOYPERcLBxTuMjYQXi-13" target="DiGOYPERcLBxTuMjYQXi-57">
          <mxGeometry width="50" height="50" relative="1" as="geometry">
            <mxPoint x="250" y="220" as="sourcePoint" />
            <mxPoint x="280" y="200" as="targetPoint" />
          </mxGeometry>
        </mxCell>
        <mxCell id="DiGOYPERcLBxTuMjYQXi-64" value="" style="endArrow=classic;html=1;rounded=0;strokeColor=#67AB9F;strokeWidth=1;exitX=1;exitY=0.5;exitDx=0;exitDy=0;entryX=0;entryY=0.5;entryDx=0;entryDy=0;" edge="1" parent="1" source="DiGOYPERcLBxTuMjYQXi-10" target="DiGOYPERcLBxTuMjYQXi-57">
          <mxGeometry width="50" height="50" relative="1" as="geometry">
            <mxPoint x="240" y="240" as="sourcePoint" />
            <mxPoint x="270" y="220" as="targetPoint" />
          </mxGeometry>
        </mxCell>
        <mxCell id="DiGOYPERcLBxTuMjYQXi-42" value="" style="rounded=0;whiteSpace=wrap;html=1;" vertex="1" parent="1">
          <mxGeometry x="400" y="120" width="140" height="60" as="geometry" />
        </mxCell>
        <mxCell id="DiGOYPERcLBxTuMjYQXi-44" value="" style="endArrow=classic;html=1;rounded=0;strokeColor=#67AB9F;strokeWidth=1;exitX=1;exitY=0.5;exitDx=0;exitDy=0;" edge="1" parent="1">
          <mxGeometry width="50" height="50" relative="1" as="geometry">
            <mxPoint x="410" y="130" as="sourcePoint" />
            <mxPoint x="440" y="130" as="targetPoint" />
          </mxGeometry>
        </mxCell>
        <mxCell id="DiGOYPERcLBxTuMjYQXi-45" value="" style="endArrow=classic;html=1;rounded=0;strokeColor=#808080;strokeWidth=1;exitX=1;exitY=0.5;exitDx=0;exitDy=0;" edge="1" parent="1">
          <mxGeometry width="50" height="50" relative="1" as="geometry">
            <mxPoint x="410" y="150.39999999999998" as="sourcePoint" />
            <mxPoint x="440" y="150" as="targetPoint" />
          </mxGeometry>
        </mxCell>
        <mxCell id="DiGOYPERcLBxTuMjYQXi-46" value="My Path" style="text;html=1;align=left;verticalAlign=middle;whiteSpace=wrap;rounded=0;fontSize=10;" vertex="1" parent="1">
          <mxGeometry x="440" y="120" width="60" height="20" as="geometry" />
        </mxCell>
        <mxCell id="DiGOYPERcLBxTuMjYQXi-47" value="People Path" style="text;html=1;align=left;verticalAlign=middle;whiteSpace=wrap;rounded=0;fontSize=10;" vertex="1" parent="1">
          <mxGeometry x="440" y="140" width="80" height="20" as="geometry" />
        </mxCell>
        <mxCell id="DiGOYPERcLBxTuMjYQXi-48" value="" style="rounded=1;whiteSpace=wrap;html=1;fillColor=#FFB570;strokeColor=#666666;arcSize=0;fontColor=#333333;" vertex="1" parent="1">
          <mxGeometry x="420" y="165" width="10" height="10" as="geometry" />
        </mxCell>
        <mxCell id="DiGOYPERcLBxTuMjYQXi-49" value="Theory/Practice" style="text;html=1;align=left;verticalAlign=middle;whiteSpace=wrap;rounded=0;fontSize=10;" vertex="1" parent="1">
          <mxGeometry x="440" y="160" width="80" height="20" as="geometry" />
        </mxCell>
        <mxCell id="DiGOYPERcLBxTuMjYQXi-52" value="&lt;span&gt;&lt;b&gt;How My Own Background and Path differs to Others in Learning Cyber Security&lt;/b&gt;&lt;/span&gt;" style="text;html=1;align=center;verticalAlign=middle;whiteSpace=wrap;rounded=0;fontSize=15;" vertex="1" parent="1">
          <mxGeometry x="50" y="50" width="580" height="30" as="geometry" />
        </mxCell>
        <mxCell id="DiGOYPERcLBxTuMjYQXi-65" value="" style="endArrow=classic;html=1;rounded=0;entryX=1;entryY=0.5;entryDx=0;entryDy=0;" edge="1" parent="1" target="DiGOYPERcLBxTuMjYQXi-57">
          <mxGeometry width="50" height="50" relative="1" as="geometry">
            <mxPoint x="410" y="220" as="sourcePoint" />
            <mxPoint x="120" y="270" as="targetPoint" />
          </mxGeometry>
        </mxCell>
        <mxCell id="DiGOYPERcLBxTuMjYQXi-66" value="having mutual discussion later" style="text;html=1;align=center;verticalAlign=middle;whiteSpace=wrap;rounded=0;fontSize=10;" vertex="1" parent="1">
          <mxGeometry x="400" y="220" width="90" height="20" as="geometry" />
        </mxCell>
      </root>
    </mxGraphModel>
  </diagram>
  <diagram id="5j-y2mGqqqBXhZYdOr9N" name="jobLevel">
    <mxGraphModel dx="876" dy="584" grid="1" gridSize="10" guides="1" tooltips="1" connect="1" arrows="1" fold="1" page="1" pageScale="1" pageWidth="1169" pageHeight="827" math="0" shadow="0">
      <root>
        <mxCell id="0" />
        <mxCell id="1" parent="0" />
        <mxCell id="B5SVvcnAYQWSSy-dqRTC-16" value="" style="rounded=0;whiteSpace=wrap;html=1;" vertex="1" parent="1">
          <mxGeometry x="40" y="40" width="520" height="280" as="geometry" />
        </mxCell>
        <mxCell id="B5SVvcnAYQWSSy-dqRTC-5" style="edgeStyle=orthogonalEdgeStyle;rounded=0;orthogonalLoop=1;jettySize=auto;html=1;exitX=1;exitY=0.5;exitDx=0;exitDy=0;entryX=0;entryY=0.5;entryDx=0;entryDy=0;strokeWidth=2;" edge="1" parent="1" source="B5SVvcnAYQWSSy-dqRTC-1" target="B5SVvcnAYQWSSy-dqRTC-2">
          <mxGeometry relative="1" as="geometry" />
        </mxCell>
        <mxCell id="B5SVvcnAYQWSSy-dqRTC-1" value="Internship" style="rounded=0;whiteSpace=wrap;html=1;strokeWidth=2;fontSize=16;" vertex="1" parent="1">
          <mxGeometry x="80" y="120" width="100" height="60" as="geometry" />
        </mxCell>
        <mxCell id="B5SVvcnAYQWSSy-dqRTC-6" style="edgeStyle=orthogonalEdgeStyle;rounded=0;orthogonalLoop=1;jettySize=auto;html=1;exitX=1;exitY=0.5;exitDx=0;exitDy=0;entryX=0;entryY=0.5;entryDx=0;entryDy=0;strokeWidth=2;" edge="1" parent="1" source="B5SVvcnAYQWSSy-dqRTC-2" target="B5SVvcnAYQWSSy-dqRTC-3">
          <mxGeometry relative="1" as="geometry" />
        </mxCell>
        <mxCell id="B5SVvcnAYQWSSy-dqRTC-2" value="Early Career" style="rounded=0;whiteSpace=wrap;html=1;strokeWidth=2;fontSize=16;" vertex="1" parent="1">
          <mxGeometry x="220" y="120" width="100" height="60" as="geometry" />
        </mxCell>
        <mxCell id="B5SVvcnAYQWSSy-dqRTC-3" value="Experienced-level Career" style="rounded=0;whiteSpace=wrap;html=1;strokeWidth=2;fontSize=16;" vertex="1" parent="1">
          <mxGeometry x="370" y="120" width="150" height="60" as="geometry" />
        </mxCell>
        <mxCell id="B5SVvcnAYQWSSy-dqRTC-12" value="Expertise Level" style="endArrow=classic;html=1;rounded=0;strokeWidth=4;fontSize=16;" edge="1" parent="1">
          <mxGeometry width="50" height="50" relative="1" as="geometry">
            <mxPoint x="80" y="220" as="sourcePoint" />
            <mxPoint x="520" y="220" as="targetPoint" />
            <mxPoint as="offset" />
          </mxGeometry>
        </mxCell>
        <mxCell id="B5SVvcnAYQWSSy-dqRTC-17" value="&lt;font style=&quot;font-size: 20px;&quot;&gt;Ideal Career Level Steps&lt;/font&gt;" style="text;html=1;align=center;verticalAlign=middle;whiteSpace=wrap;rounded=0;fontStyle=1" vertex="1" parent="1">
          <mxGeometry x="50" y="50" width="500" height="30" as="geometry" />
        </mxCell>
        <mxCell id="B5SVvcnAYQWSSy-dqRTC-20" value="Always Learning" style="endArrow=classic;html=1;rounded=0;strokeWidth=4;fontSize=16;" edge="1" parent="1">
          <mxGeometry width="50" height="50" relative="1" as="geometry">
            <mxPoint x="80" y="280" as="sourcePoint" />
            <mxPoint x="520" y="280" as="targetPoint" />
            <mxPoint as="offset" />
          </mxGeometry>
        </mxCell>
      </root>
    </mxGraphModel>
  </diagram>
  <diagram id="4z-WNrS7lBKVhUQKwgJz" name="socialNetwork">
    <mxGraphModel dx="604" dy="403" grid="1" gridSize="10" guides="1" tooltips="1" connect="1" arrows="1" fold="1" page="1" pageScale="1" pageWidth="1169" pageHeight="827" math="0" shadow="0">
      <root>
        <mxCell id="0" />
        <mxCell id="1" parent="0" />
        <mxCell id="sM7tHpJM7-K0tZLWsMa8-17" value="" style="rounded=0;whiteSpace=wrap;html=1;" vertex="1" parent="1">
          <mxGeometry x="120" y="40" width="320" height="320" as="geometry" />
        </mxCell>
        <mxCell id="sM7tHpJM7-K0tZLWsMa8-1" value="" style="verticalLabelPosition=bottom;sketch=0;html=1;fillColor=#007FFF;strokeColor=none;verticalAlign=top;pointerEvents=1;align=center;shape=mxgraph.cisco_safe.people_places_things_icons.icon8;" vertex="1" parent="1">
          <mxGeometry x="150" y="180" width="19.5" height="50" as="geometry" />
        </mxCell>
        <mxCell id="sM7tHpJM7-K0tZLWsMa8-2" value="" style="verticalLabelPosition=bottom;sketch=0;html=1;fillColor=#282828;strokeColor=none;verticalAlign=top;pointerEvents=1;align=center;shape=mxgraph.cisco_safe.people_places_things_icons.icon8;" vertex="1" parent="1">
          <mxGeometry x="310" y="100" width="19.5" height="50" as="geometry" />
        </mxCell>
        <mxCell id="sM7tHpJM7-K0tZLWsMa8-3" value="" style="verticalLabelPosition=bottom;sketch=0;html=1;fillColor=#282828;strokeColor=none;verticalAlign=top;pointerEvents=1;align=center;shape=mxgraph.cisco_safe.people_places_things_icons.icon8;container=1;" vertex="1" parent="1">
          <mxGeometry x="390.5" y="180" width="19.5" height="50" as="geometry" />
        </mxCell>
        <mxCell id="sM7tHpJM7-K0tZLWsMa8-6" value="ME" style="text;html=1;align=center;verticalAlign=middle;whiteSpace=wrap;rounded=0;" vertex="1" parent="1">
          <mxGeometry x="139.75" y="230" width="40" height="30" as="geometry" />
        </mxCell>
        <mxCell id="sM7tHpJM7-K0tZLWsMa8-7" value="PERSON 1" style="text;html=1;align=center;verticalAlign=middle;whiteSpace=wrap;rounded=0;" vertex="1" parent="1">
          <mxGeometry x="279.63" y="150" width="80.25" height="20" as="geometry" />
        </mxCell>
        <mxCell id="sM7tHpJM7-K0tZLWsMa8-8" value="PERSON 2" style="text;html=1;align=center;verticalAlign=middle;whiteSpace=wrap;rounded=0;" vertex="1" parent="1">
          <mxGeometry x="360.13" y="230" width="80.25" height="20" as="geometry" />
        </mxCell>
        <mxCell id="sM7tHpJM7-K0tZLWsMa8-9" value="GROUPS OF PEOPLE" style="text;html=1;align=center;verticalAlign=middle;whiteSpace=wrap;rounded=0;" vertex="1" parent="1">
          <mxGeometry x="249.63" y="315" width="140.25" height="20" as="geometry" />
        </mxCell>
        <mxCell id="sM7tHpJM7-K0tZLWsMa8-10" value="" style="endArrow=classic;html=1;rounded=0;strokeWidth=2;exitX=1.064;exitY=0.235;exitDx=0;exitDy=0;exitPerimeter=0;entryX=-0.066;entryY=0.543;entryDx=0;entryDy=0;entryPerimeter=0;strokeColor=#66B2FF;startArrow=classic;startFill=1;" edge="1" parent="1" source="sM7tHpJM7-K0tZLWsMa8-1" target="sM7tHpJM7-K0tZLWsMa8-2">
          <mxGeometry width="50" height="50" relative="1" as="geometry">
            <mxPoint x="290" y="260" as="sourcePoint" />
            <mxPoint x="340" y="210" as="targetPoint" />
          </mxGeometry>
        </mxCell>
        <mxCell id="sM7tHpJM7-K0tZLWsMa8-11" value="" style="endArrow=classic;html=1;rounded=0;strokeWidth=2;exitX=1.136;exitY=0.571;exitDx=0;exitDy=0;exitPerimeter=0;entryX=-0.037;entryY=0.537;entryDx=0;entryDy=0;entryPerimeter=0;strokeColor=#66B2FF;startArrow=classic;startFill=1;" edge="1" parent="1" source="sM7tHpJM7-K0tZLWsMa8-1" target="sM7tHpJM7-K0tZLWsMa8-3">
          <mxGeometry width="50" height="50" relative="1" as="geometry">
            <mxPoint x="240" y="272" as="sourcePoint" />
            <mxPoint x="379" y="190" as="targetPoint" />
          </mxGeometry>
        </mxCell>
        <mxCell id="sM7tHpJM7-K0tZLWsMa8-12" value="" style="group" vertex="1" connectable="0" parent="1">
          <mxGeometry x="270" y="270" width="100" height="45" as="geometry" />
        </mxCell>
        <mxCell id="sM7tHpJM7-K0tZLWsMa8-4" value="" style="verticalLabelPosition=bottom;sketch=0;html=1;fillColor=#282828;strokeColor=none;verticalAlign=top;pointerEvents=1;align=center;shape=mxgraph.cisco_safe.people_places_things_icons.icon9;" vertex="1" parent="sM7tHpJM7-K0tZLWsMa8-12">
          <mxGeometry width="50" height="45" as="geometry" />
        </mxCell>
        <mxCell id="sM7tHpJM7-K0tZLWsMa8-5" value="" style="verticalLabelPosition=bottom;sketch=0;html=1;fillColor=#282828;strokeColor=none;verticalAlign=top;pointerEvents=1;align=center;shape=mxgraph.cisco_safe.people_places_things_icons.icon9;" vertex="1" parent="sM7tHpJM7-K0tZLWsMa8-12">
          <mxGeometry x="50" width="50" height="45" as="geometry" />
        </mxCell>
        <mxCell id="sM7tHpJM7-K0tZLWsMa8-13" value="" style="endArrow=classic;html=1;rounded=0;strokeWidth=2;exitX=1.057;exitY=0.799;exitDx=0;exitDy=0;exitPerimeter=0;entryX=-0.029;entryY=0.425;entryDx=0;entryDy=0;entryPerimeter=0;strokeColor=#66B2FF;startArrow=classic;startFill=1;" edge="1" parent="1" source="sM7tHpJM7-K0tZLWsMa8-1" target="sM7tHpJM7-K0tZLWsMa8-4">
          <mxGeometry width="50" height="50" relative="1" as="geometry">
            <mxPoint x="180" y="265" as="sourcePoint" />
            <mxPoint x="318" y="200" as="targetPoint" />
          </mxGeometry>
        </mxCell>
        <mxCell id="sM7tHpJM7-K0tZLWsMa8-14" value="exchanging insights" style="text;html=1;align=center;verticalAlign=middle;whiteSpace=wrap;rounded=0;" vertex="1" parent="1">
          <mxGeometry x="150" y="120" width="120.37" height="30" as="geometry" />
        </mxCell>
        <mxCell id="sM7tHpJM7-K0tZLWsMa8-15" value="exchanging knowledge" style="text;html=1;align=center;verticalAlign=middle;whiteSpace=wrap;rounded=0;" vertex="1" parent="1">
          <mxGeometry x="230" y="180" width="140" height="30" as="geometry" />
        </mxCell>
        <mxCell id="sM7tHpJM7-K0tZLWsMa8-16" value="exchanging experience" style="text;html=1;align=center;verticalAlign=middle;whiteSpace=wrap;rounded=0;" vertex="1" parent="1">
          <mxGeometry x="120" y="270" width="140.12" height="30" as="geometry" />
        </mxCell>
        <mxCell id="sM7tHpJM7-K0tZLWsMa8-18" value="Building Social Network and Its Advantages" style="text;html=1;align=center;verticalAlign=middle;whiteSpace=wrap;rounded=0;fontStyle=1;fontSize=14;" vertex="1" parent="1">
          <mxGeometry x="129.75" y="50" width="300.25" height="30" as="geometry" />
        </mxCell>
      </root>
    </mxGraphModel>
  </diagram>
  <diagram id="XZdoxp9sx-xZG5r0dmjZ" name="theRoadMap">
    <mxGraphModel dx="701" dy="1294" grid="1" gridSize="10" guides="1" tooltips="1" connect="1" arrows="1" fold="1" page="1" pageScale="1" pageWidth="1169" pageHeight="827" math="0" shadow="0">
      <root>
        <mxCell id="0" />
        <mxCell id="1" parent="0" />
        <mxCell id="A1eO21Q65lQMXS6giFi2-45" value="&lt;b&gt;&lt;font&gt;Road Map to become a professional DFIR as network engineering student&lt;/font&gt;&lt;/b&gt;" style="text;html=1;align=center;verticalAlign=middle;whiteSpace=wrap;rounded=0;fontSize=27;" vertex="1" parent="1">
          <mxGeometry x="40" y="-810" width="1040" height="30" as="geometry" />
        </mxCell>
        <mxCell id="MQvuXdXu1da8lYIcrYNj-1" value="" style="endArrow=classic;html=1;rounded=0;strokeWidth=4;strokeColor=default;" parent="1" edge="1">
          <mxGeometry width="50" height="50" relative="1" as="geometry">
            <mxPoint x="40" y="-530" as="sourcePoint" />
            <mxPoint x="1080" y="-530" as="targetPoint" />
          </mxGeometry>
        </mxCell>
        <mxCell id="MQvuXdXu1da8lYIcrYNj-2" value="first 5 years" style="text;html=1;align=center;verticalAlign=middle;whiteSpace=wrap;rounded=0;fontSize=14;" parent="1" vertex="1">
          <mxGeometry x="1040" y="-520" width="100" height="30" as="geometry" />
        </mxCell>
        <mxCell id="MQvuXdXu1da8lYIcrYNj-3" value="" style="endArrow=none;html=1;rounded=0;startArrow=classic;startFill=1;strokeWidth=3;strokeColor=#3333FF;" parent="1" edge="1">
          <mxGeometry width="50" height="50" relative="1" as="geometry">
            <mxPoint x="110" y="-530" as="sourcePoint" />
            <mxPoint x="110" y="-480" as="targetPoint" />
          </mxGeometry>
        </mxCell>
        <mxCell id="A1eO21Q65lQMXS6giFi2-1" value="" style="endArrow=none;html=1;rounded=0;strokeWidth=2;" edge="1" parent="1">
          <mxGeometry width="50" height="50" relative="1" as="geometry">
            <mxPoint x="50" y="-530" as="sourcePoint" />
            <mxPoint x="50" y="-680" as="targetPoint" />
          </mxGeometry>
        </mxCell>
        <mxCell id="A1eO21Q65lQMXS6giFi2-2" value="" style="endArrow=none;html=1;rounded=0;strokeWidth=2;" edge="1" parent="1">
          <mxGeometry width="50" height="50" relative="1" as="geometry">
            <mxPoint x="170" y="-530" as="sourcePoint" />
            <mxPoint x="170" y="-600" as="targetPoint" />
          </mxGeometry>
        </mxCell>
        <mxCell id="A1eO21Q65lQMXS6giFi2-3" value="6 months&lt;div&gt;per certification&lt;/div&gt;" style="endArrow=classic;startArrow=classic;html=1;rounded=0;fontSize=12;labelBackgroundColor=default;" edge="1" parent="1">
          <mxGeometry width="50" height="50" relative="1" as="geometry">
            <mxPoint x="50" y="-560" as="sourcePoint" />
            <mxPoint x="170" y="-560" as="targetPoint" />
          </mxGeometry>
        </mxCell>
        <mxCell id="A1eO21Q65lQMXS6giFi2-4" value="Day 1" style="text;html=1;align=left;verticalAlign=middle;whiteSpace=wrap;rounded=0;" vertex="1" parent="1">
          <mxGeometry x="40" y="-520" width="40" height="20" as="geometry" />
        </mxCell>
        <mxCell id="A1eO21Q65lQMXS6giFi2-7" value="" style="endArrow=none;html=1;rounded=0;strokeWidth=2;" edge="1" parent="1">
          <mxGeometry width="50" height="50" relative="1" as="geometry">
            <mxPoint x="290" y="-530" as="sourcePoint" />
            <mxPoint x="290" y="-600" as="targetPoint" />
          </mxGeometry>
        </mxCell>
        <mxCell id="A1eO21Q65lQMXS6giFi2-9" value="" style="endArrow=none;html=1;rounded=0;startArrow=classic;startFill=1;strokeWidth=3;strokeColor=#FF8000;endFill=1;" edge="1" parent="1">
          <mxGeometry width="50" height="50" relative="1" as="geometry">
            <mxPoint x="230" y="-530" as="sourcePoint" />
            <mxPoint x="230" y="-480" as="targetPoint" />
          </mxGeometry>
        </mxCell>
        <mxCell id="A1eO21Q65lQMXS6giFi2-16" value="" style="endArrow=none;html=1;rounded=0;strokeWidth=2;" edge="1" parent="1">
          <mxGeometry width="50" height="50" relative="1" as="geometry">
            <mxPoint x="410" y="-530" as="sourcePoint" />
            <mxPoint x="410" y="-720" as="targetPoint" />
          </mxGeometry>
        </mxCell>
        <mxCell id="A1eO21Q65lQMXS6giFi2-17" value="" style="endArrow=none;html=1;rounded=0;startArrow=classic;startFill=1;strokeWidth=3;strokeColor=#009900;" edge="1" parent="1">
          <mxGeometry width="50" height="50" relative="1" as="geometry">
            <mxPoint x="350" y="-530" as="sourcePoint" />
            <mxPoint x="350" y="-480" as="targetPoint" />
          </mxGeometry>
        </mxCell>
        <mxCell id="A1eO21Q65lQMXS6giFi2-20" value="first operating system on your computer/laptop" style="endArrow=classic;startArrow=classic;html=1;rounded=0;" edge="1" parent="1">
          <mxGeometry width="50" height="50" relative="1" as="geometry">
            <mxPoint x="50" y="-640" as="sourcePoint" />
            <mxPoint x="410" y="-640" as="targetPoint" />
          </mxGeometry>
        </mxCell>
        <mxCell id="A1eO21Q65lQMXS6giFi2-21" value="" style="endArrow=none;html=1;rounded=0;strokeWidth=2;" edge="1" parent="1">
          <mxGeometry width="50" height="50" relative="1" as="geometry">
            <mxPoint x="570" y="-530" as="sourcePoint" />
            <mxPoint x="570" y="-600" as="targetPoint" />
          </mxGeometry>
        </mxCell>
        <mxCell id="A1eO21Q65lQMXS6giFi2-22" value="1 year familiarizing&lt;div&gt;to Linux&lt;/div&gt;" style="endArrow=classic;startArrow=classic;html=1;rounded=0;fontSize=12;" edge="1" parent="1">
          <mxGeometry x="0.0058" width="50" height="50" relative="1" as="geometry">
            <mxPoint x="410" y="-580" as="sourcePoint" />
            <mxPoint x="570" y="-580" as="targetPoint" />
            <mxPoint as="offset" />
          </mxGeometry>
        </mxCell>
        <mxCell id="A1eO21Q65lQMXS6giFi2-23" value="time to be familiar to more operating systems" style="endArrow=classic;startArrow=classic;html=1;rounded=0;" edge="1" parent="1">
          <mxGeometry width="50" height="50" relative="1" as="geometry">
            <mxPoint x="410" y="-660" as="sourcePoint" />
            <mxPoint x="1080" y="-660" as="targetPoint" />
          </mxGeometry>
        </mxCell>
        <mxCell id="A1eO21Q65lQMXS6giFi2-25" value="" style="endArrow=none;html=1;rounded=0;startArrow=classic;startFill=1;strokeWidth=3;strokeColor=#CC0000;" edge="1" parent="1">
          <mxGeometry width="50" height="50" relative="1" as="geometry">
            <mxPoint x="490" y="-530" as="sourcePoint" />
            <mxPoint x="490" y="-480" as="targetPoint" />
          </mxGeometry>
        </mxCell>
        <mxCell id="A1eO21Q65lQMXS6giFi2-26" value="6 months&lt;div&gt;per certification&lt;/div&gt;" style="endArrow=classic;startArrow=classic;html=1;rounded=0;fontSize=12;labelBackgroundColor=default;" edge="1" parent="1">
          <mxGeometry width="50" height="50" relative="1" as="geometry">
            <mxPoint x="170" y="-580" as="sourcePoint" />
            <mxPoint x="290" y="-580" as="targetPoint" />
          </mxGeometry>
        </mxCell>
        <mxCell id="A1eO21Q65lQMXS6giFi2-27" value="6 months&lt;div&gt;per certification&lt;/div&gt;" style="endArrow=classic;startArrow=classic;html=1;rounded=0;fontSize=12;labelBackgroundColor=default;" edge="1" parent="1">
          <mxGeometry width="50" height="50" relative="1" as="geometry">
            <mxPoint x="290" y="-560" as="sourcePoint" />
            <mxPoint x="410" y="-560" as="targetPoint" />
          </mxGeometry>
        </mxCell>
        <mxCell id="A1eO21Q65lQMXS6giFi2-28" value="learn by competitions&lt;div&gt;within 6 months&lt;/div&gt;" style="endArrow=classic;startArrow=classic;html=1;rounded=0;fontSize=12;" edge="1" parent="1">
          <mxGeometry x="0.0058" width="50" height="50" relative="1" as="geometry">
            <mxPoint x="570" y="-560" as="sourcePoint" />
            <mxPoint x="720" y="-560" as="targetPoint" />
            <mxPoint as="offset" />
          </mxGeometry>
        </mxCell>
        <mxCell id="A1eO21Q65lQMXS6giFi2-29" value="" style="endArrow=none;html=1;rounded=0;strokeWidth=2;" edge="1" parent="1">
          <mxGeometry width="50" height="50" relative="1" as="geometry">
            <mxPoint x="720" y="-530" as="sourcePoint" />
            <mxPoint x="720" y="-640" as="targetPoint" />
          </mxGeometry>
        </mxCell>
        <mxCell id="A1eO21Q65lQMXS6giFi2-30" value="" style="endArrow=none;html=1;rounded=0;startArrow=classic;startFill=1;strokeWidth=3;strokeColor=#B5739D;" edge="1" parent="1">
          <mxGeometry width="50" height="50" relative="1" as="geometry">
            <mxPoint x="650" y="-530" as="sourcePoint" />
            <mxPoint x="650" y="-480" as="targetPoint" />
          </mxGeometry>
        </mxCell>
        <mxCell id="A1eO21Q65lQMXS6giFi2-33" value="having intership(s)&lt;div&gt;within 1 year&lt;/div&gt;" style="endArrow=classic;startArrow=classic;html=1;rounded=0;fontSize=12;" edge="1" parent="1">
          <mxGeometry x="0.0084" width="50" height="50" relative="1" as="geometry">
            <mxPoint x="720" y="-580" as="sourcePoint" />
            <mxPoint x="860" y="-580" as="targetPoint" />
            <mxPoint as="offset" />
          </mxGeometry>
        </mxCell>
        <mxCell id="A1eO21Q65lQMXS6giFi2-34" value="" style="endArrow=none;html=1;rounded=0;strokeWidth=2;" edge="1" parent="1">
          <mxGeometry width="50" height="50" relative="1" as="geometry">
            <mxPoint x="860" y="-530" as="sourcePoint" />
            <mxPoint x="860" y="-600" as="targetPoint" />
          </mxGeometry>
        </mxCell>
        <mxCell id="A1eO21Q65lQMXS6giFi2-38" value="DFIR certifications while working" style="endArrow=classic;startArrow=classic;html=1;rounded=0;fontSize=12;" edge="1" parent="1">
          <mxGeometry x="0.0084" width="50" height="50" relative="1" as="geometry">
            <mxPoint x="720" y="-610" as="sourcePoint" />
            <mxPoint x="1080" y="-610" as="targetPoint" />
            <mxPoint as="offset" />
          </mxGeometry>
        </mxCell>
        <mxCell id="A1eO21Q65lQMXS6giFi2-40" value="" style="endArrow=none;html=1;rounded=0;startArrow=classic;startFill=1;strokeWidth=3;strokeColor=#4C0099;" edge="1" parent="1">
          <mxGeometry width="50" height="50" relative="1" as="geometry">
            <mxPoint x="790" y="-530" as="sourcePoint" />
            <mxPoint x="790" y="-480" as="targetPoint" />
          </mxGeometry>
        </mxCell>
        <mxCell id="A1eO21Q65lQMXS6giFi2-43" value="" style="endArrow=none;html=1;rounded=0;startArrow=classic;startFill=1;strokeWidth=3;strokeColor=#663300;" edge="1" parent="1">
          <mxGeometry width="50" height="50" relative="1" as="geometry">
            <mxPoint x="930" y="-530" as="sourcePoint" />
            <mxPoint x="930" y="-480" as="targetPoint" />
          </mxGeometry>
        </mxCell>
        <mxCell id="2m5ZMW3eq1_i2xvB7QHv-1" value="cyber security and information security certifications" style="endArrow=classic;startArrow=classic;html=1;rounded=0;fontSize=12;" edge="1" parent="1">
          <mxGeometry x="0.0084" width="50" height="50" relative="1" as="geometry">
            <mxPoint x="720" y="-630" as="sourcePoint" />
            <mxPoint x="1080" y="-630" as="targetPoint" />
            <mxPoint as="offset" />
          </mxGeometry>
        </mxCell>
        <mxCell id="2m5ZMW3eq1_i2xvB7QHv-4" value="time to be familiar with cloud and server" style="endArrow=classic;startArrow=classic;html=1;rounded=0;" edge="1" parent="1">
          <mxGeometry width="50" height="50" relative="1" as="geometry">
            <mxPoint x="410" y="-680" as="sourcePoint" />
            <mxPoint x="1080" y="-680" as="targetPoint" />
          </mxGeometry>
        </mxCell>
        <mxCell id="2m5ZMW3eq1_i2xvB7QHv-5" value="time to be familiar with blockchain and cryptocurrency" style="endArrow=classic;startArrow=classic;html=1;rounded=0;" edge="1" parent="1">
          <mxGeometry width="50" height="50" relative="1" as="geometry">
            <mxPoint x="410" y="-700" as="sourcePoint" />
            <mxPoint x="1080" y="-700" as="targetPoint" />
          </mxGeometry>
        </mxCell>
        <mxCell id="2m5ZMW3eq1_i2xvB7QHv-6" value="" style="group" vertex="1" connectable="0" parent="1">
          <mxGeometry x="40" y="-440" width="1120" height="990" as="geometry" />
        </mxCell>
        <mxCell id="A1eO21Q65lQMXS6giFi2-10" value="&lt;font style=&quot;font-size: 15px;&quot;&gt;&lt;b&gt;Learning cybersec and infosec by earning certifications&lt;/b&gt;&lt;/font&gt;&lt;div&gt;&lt;span style=&quot;background-color: transparent; color: light-dark(rgb(0, 0, 0), rgb(255, 255, 255));&quot;&gt;&lt;br&gt;&lt;/span&gt;&lt;/div&gt;&lt;div&gt;&lt;span style=&quot;background-color: transparent; color: light-dark(rgb(0, 0, 0), rgb(255, 255, 255));&quot;&gt;&lt;br&gt;&lt;/span&gt;&lt;/div&gt;&lt;div&gt;&lt;span style=&quot;background-color: transparent; color: light-dark(rgb(0, 0, 0), rgb(255, 255, 255));&quot;&gt;Possible several cyber security&amp;nbsp;certifications you can learn to have:&lt;/span&gt;&lt;/div&gt;&lt;div&gt;1. Cisco Certified Cybersecurity Associate (CBROPS)&lt;/div&gt;&lt;div&gt;2. CompTIA Security+, CySA+&lt;/div&gt;&lt;div&gt;3. EC-Council Certified Ethical Hacker (CEH)&lt;/div&gt;&lt;div&gt;&lt;br&gt;&lt;/div&gt;&lt;div&gt;## concentration in information security&lt;/div&gt;&lt;div&gt;1. ISC2 Certified Information Systems Security Professional (CISSP)&lt;/div&gt;&lt;div&gt;2. Global Industrial Cyber Security Professional (GICSP)&lt;/div&gt;&lt;div&gt;3. Certified Information Systems Auditor (CISA)&lt;/div&gt;&lt;div&gt;4. GIAC Security Essentials Certification (GSEC)&lt;/div&gt;&lt;div&gt;5. Global Industrial Cyber Security Professional&lt;/div&gt;&lt;div&gt;6. System Security Certified Practitioner (SSCP)&lt;/div&gt;&lt;div&gt;&lt;br&gt;&lt;/div&gt;&lt;div&gt;## concentration in penetration testing&lt;/div&gt;&lt;div&gt;1. CompTIA PenTest+&lt;/div&gt;&lt;div&gt;2. eLearnSecurity Junior Penetration Tester (eJPT)&lt;/div&gt;&lt;div&gt;3. Offensive Security Certified Professioinal (OSCP)&lt;/div&gt;&lt;div&gt;&lt;br&gt;&lt;/div&gt;&lt;div&gt;It is also recommended to have &lt;b&gt;specific&lt;/b&gt; or &lt;b&gt;more&amp;nbsp;professional-level&lt;/b&gt;&amp;nbsp;certifications, depending on the jobs&#39; requirement you want to apply to or else.&lt;/div&gt;" style="rounded=0;whiteSpace=wrap;html=1;align=left;strokeColor=#FF8000;strokeWidth=3;" vertex="1" parent="2m5ZMW3eq1_i2xvB7QHv-6">
          <mxGeometry y="640" width="410" height="350" as="geometry" />
        </mxCell>
        <mxCell id="A1eO21Q65lQMXS6giFi2-46" value="" style="group" vertex="1" connectable="0" parent="2m5ZMW3eq1_i2xvB7QHv-6">
          <mxGeometry width="1120" height="630" as="geometry" />
        </mxCell>
        <mxCell id="Kl7F-X5y0FDA3_k9QnjS-2" value="&lt;font style=&quot;font-size: 15px;&quot;&gt;&lt;b&gt;Learning networks by earning certifications&lt;/b&gt;&lt;/font&gt;&lt;div&gt;&lt;span style=&quot;background-color: transparent; color: light-dark(rgb(0, 0, 0), rgb(255, 255, 255));&quot;&gt;&lt;br&gt;&lt;/span&gt;&lt;/div&gt;&lt;div&gt;&lt;span style=&quot;background-color: transparent; color: light-dark(rgb(0, 0, 0), rgb(255, 255, 255));&quot;&gt;&lt;br&gt;&lt;/span&gt;&lt;/div&gt;&lt;div&gt;&lt;span style=&quot;background-color: transparent; color: light-dark(rgb(0, 0, 0), rgb(255, 255, 255));&quot;&gt;Learn and achieve one associate-level networks certification in 6 months is enough. The more certifications, the more time is needed.&lt;/span&gt;&lt;/div&gt;&lt;div&gt;&lt;span style=&quot;background-color: transparent; color: light-dark(rgb(0, 0, 0), rgb(255, 255, 255));&quot;&gt;&lt;br&gt;&lt;/span&gt;&lt;/div&gt;&lt;div&gt;&lt;span style=&quot;background-color: transparent; color: light-dark(rgb(0, 0, 0), rgb(255, 255, 255));&quot;&gt;Possible several &lt;b&gt;Associate-level&lt;/b&gt; networks certifications you can choose:&lt;/span&gt;&lt;/div&gt;&lt;div&gt;1. Cisco Certified Network Associate (CCNA)&lt;/div&gt;&lt;div&gt;2.&amp;nbsp;MikroTik Certified Network Associate (MTCNA)&lt;/div&gt;&lt;div&gt;3. CompTIA Network+&lt;/div&gt;&lt;div&gt;4. HPE Aruba Networking certifications - Associate&lt;/div&gt;&lt;div&gt;5.&amp;nbsp;Juniper Networks Certified Associate - Junos (JNCIA-Junos)&lt;/div&gt;&lt;div&gt;6. Huawei Certified ICT Associate certifications (HCIA)&lt;/div&gt;&lt;div&gt;&lt;br&gt;&lt;/div&gt;&lt;div&gt;It is also recommended to have &lt;b&gt;specific&lt;/b&gt; or &lt;b&gt;more&amp;nbsp;professional-level&lt;/b&gt;&amp;nbsp;certifications, depending on the jobs&#39; requirement you want to apply to or else.&lt;/div&gt;&lt;div&gt;&lt;br&gt;&lt;/div&gt;&lt;div&gt;References:&lt;/div&gt;&lt;div&gt;&lt;a href=&quot;data:page/id,XZdoxp9sx-xZG5r0dmjZ&quot;&gt;From Cisco&lt;/a&gt;&lt;br&gt;&lt;a href=&quot;https://mikrotik.com/training/about&quot;&gt;From MikroTik&lt;/a&gt;&lt;/div&gt;&lt;div&gt;&lt;a href=&quot;https://partners.comptia.org/docs/default-source/resources/it-certification-roadmap-8-5x11-print0c3c382c09d76fc19da8ff0a002c2329&quot;&gt;From CompTIA&lt;/a&gt;&lt;/div&gt;&lt;div&gt;&lt;a href=&quot;data:page/id,XZdoxp9sx-xZG5r0dmjZ&quot;&gt;From HPE&lt;/a&gt;&lt;/div&gt;&lt;div&gt;&lt;a href=&quot;data:page/id,XZdoxp9sx-xZG5r0dmjZ&quot;&gt;From Juniper&lt;/a&gt;&lt;/div&gt;&lt;div&gt;&lt;a href=&quot;https://e.huawei.com/en/talent/cert/#/careerCert&quot;&gt;From Huawei&lt;/a&gt;&lt;/div&gt;" style="rounded=0;whiteSpace=wrap;html=1;align=left;strokeColor=#3333FF;strokeWidth=3;" vertex="1" parent="A1eO21Q65lQMXS6giFi2-46">
          <mxGeometry width="330" height="410" as="geometry" />
        </mxCell>
        <mxCell id="A1eO21Q65lQMXS6giFi2-8" value="&lt;font style=&quot;font-size: 15px;&quot;&gt;&lt;b&gt;Learning programming by earning certifications&lt;/b&gt;&lt;/font&gt;&lt;div&gt;&lt;span style=&quot;background-color: transparent; color: light-dark(rgb(0, 0, 0), rgb(255, 255, 255));&quot;&gt;&lt;br&gt;&lt;/span&gt;&lt;/div&gt;&lt;div&gt;&lt;br&gt;&lt;/div&gt;&lt;div&gt;&lt;span style=&quot;background-color: transparent; color: light-dark(rgb(0, 0, 0), rgb(255, 255, 255));&quot;&gt;Possible several &lt;b&gt;Associate-level&lt;/b&gt;&amp;nbsp;programming certifications you can choose:&lt;/span&gt;&lt;/div&gt;&lt;div&gt;1. PCAP - Certified Associate Python Programmer&lt;/div&gt;&lt;div&gt;2. JSA - Certified Associate JavaScript Programmer&lt;/div&gt;&lt;div&gt;3. CPA - C++ Certified Associate Programmer&lt;/div&gt;&lt;div&gt;&lt;br&gt;&lt;/div&gt;&lt;div&gt;Regardless of the certifications, it is also suggested to have certain-level of expertise in these programming languages: (The order does not represent its importance or priority)&lt;/div&gt;&lt;div&gt;&amp;gt;&amp;gt; SQL&lt;br&gt;&amp;gt;&amp;gt; PHP&lt;/div&gt;&lt;div&gt;&amp;gt;&amp;gt; Go (Golang)&lt;/div&gt;&lt;div&gt;&amp;gt;&amp;gt; PowerShell&lt;/div&gt;&lt;div&gt;&amp;gt;&amp;gt; Bash/Shell&lt;/div&gt;&lt;div&gt;&amp;gt;&amp;gt; Java&lt;/div&gt;&lt;div&gt;&amp;gt;&amp;gt; Perl&lt;/div&gt;&lt;div&gt;&amp;gt;&amp;gt; Ruby&lt;/div&gt;&lt;div&gt;&amp;gt;&amp;gt; C&lt;/div&gt;&lt;div&gt;&amp;gt;&amp;gt; Assembly&lt;/div&gt;&lt;div&gt;&lt;br&gt;&lt;/div&gt;&lt;div&gt;References:&lt;/div&gt;&lt;div&gt;&lt;a href=&quot;data:page/id,XZdoxp9sx-xZG5r0dmjZ&quot;&gt;Cisco NetAcad&lt;/a&gt;&lt;/div&gt;&lt;div&gt;&lt;a href=&quot;data:page/id,XZdoxp9sx-xZG5r0dmjZ&quot;&gt;HackTheBox&lt;/a&gt;&lt;/div&gt;&lt;div&gt;&lt;a href=&quot;data:page/id,XZdoxp9sx-xZG5r0dmjZ&quot;&gt;StationX&lt;/a&gt;&lt;/div&gt;" style="rounded=0;whiteSpace=wrap;html=1;align=left;strokeColor=#FF8000;strokeWidth=3;" vertex="1" parent="A1eO21Q65lQMXS6giFi2-46">
          <mxGeometry x="340" width="360" height="410" as="geometry" />
        </mxCell>
        <mxCell id="A1eO21Q65lQMXS6giFi2-12" value="&lt;font style=&quot;font-size: 15px;&quot;&gt;&lt;b&gt;Learning system administration by earning certifications&lt;/b&gt;&lt;/font&gt;&lt;div&gt;&lt;span style=&quot;background-color: transparent; color: light-dark(rgb(0, 0, 0), rgb(255, 255, 255));&quot;&gt;&lt;br&gt;&lt;/span&gt;&lt;/div&gt;&lt;div&gt;&lt;span style=&quot;background-color: transparent; color: light-dark(rgb(0, 0, 0), rgb(255, 255, 255));&quot;&gt;&lt;br&gt;&lt;/span&gt;&lt;/div&gt;&lt;div&gt;&lt;span style=&quot;background-color: transparent; color: light-dark(rgb(0, 0, 0), rgb(255, 255, 255));&quot;&gt;Possible several cyber security&amp;nbsp;certifications you can choose:&lt;/span&gt;&lt;/div&gt;&lt;div&gt;1. CompTIA Linux+&lt;/div&gt;&lt;div&gt;2. Red Hat Certified System Administrator I, II, and III (RH124, RH134, RH135)&lt;/div&gt;&lt;div&gt;3. Linux Foundation Certified System Administrator (LFCS)&lt;/div&gt;&lt;div&gt;4. GIAC Certified UNIX Security Administrator (GCUX)&lt;/div&gt;&lt;div&gt;&lt;br&gt;&lt;/div&gt;&lt;div&gt;Even though these are mostly about Linux, you can run it on top of Windows or macOS through virtualization or multi-boot.&lt;/div&gt;&lt;div&gt;&lt;br&gt;&lt;/div&gt;&lt;div&gt;References:&lt;/div&gt;&lt;a href=&quot;https://partners.comptia.org/docs/default-source/resources/it-certification-roadmap-8-5x11-print0c3c382c09d76fc19da8ff0a002c2329&quot;&gt;From CompTIA&lt;/a&gt;&lt;br&gt;&lt;div&gt;&lt;a href=&quot;data:page/id,XZdoxp9sx-xZG5r0dmjZ&quot;&gt;From Red Hat&lt;/a&gt;&lt;/div&gt;&lt;div&gt;&lt;a href=&quot;data:page/id,XZdoxp9sx-xZG5r0dmjZ&quot;&gt;From Linux Foundation&lt;/a&gt;&lt;/div&gt;" style="rounded=0;whiteSpace=wrap;html=1;align=left;strokeColor=#009900;strokeWidth=3;" vertex="1" parent="A1eO21Q65lQMXS6giFi2-46">
          <mxGeometry x="710" width="410" height="250" as="geometry" />
        </mxCell>
        <mxCell id="A1eO21Q65lQMXS6giFi2-24" value="&lt;div&gt;&lt;span style=&quot;background-color: transparent; color: light-dark(rgb(0, 0, 0), rgb(255, 255, 255)); font-size: 15px;&quot;&gt;&lt;b&gt;Familiarizing to cross Operating Systems (OS)&lt;/b&gt;&lt;/span&gt;&lt;/div&gt;&lt;div&gt;&lt;span style=&quot;background-color: transparent; color: light-dark(rgb(0, 0, 0), rgb(255, 255, 255));&quot;&gt;&lt;br&gt;&lt;/span&gt;&lt;/div&gt;&lt;div&gt;You may know only one OS in the first 18 months of the road map. Now, you have to be familiar to other operating systems, especially Linux-based operating systems. These are classified due to the huge community or beginner friendly.&lt;/div&gt;&lt;div&gt;&lt;br&gt;&lt;/div&gt;&lt;div&gt;&amp;gt;&amp;gt; Ubuntu&lt;/div&gt;&lt;div&gt;&amp;gt;&amp;gt; Kali Linux&lt;/div&gt;&lt;div&gt;&amp;gt;&amp;gt; Parrot OS&lt;/div&gt;" style="rounded=0;whiteSpace=wrap;html=1;align=left;strokeColor=#CC0000;strokeWidth=3;" vertex="1" parent="A1eO21Q65lQMXS6giFi2-46">
          <mxGeometry x="710" y="260" width="410" height="150" as="geometry" />
        </mxCell>
        <mxCell id="A1eO21Q65lQMXS6giFi2-31" value="&lt;div&gt;&lt;span style=&quot;font-size: 15px;&quot;&gt;&lt;b&gt;Learn cyber security by joining the competitions&lt;/b&gt;&lt;/span&gt;&lt;/div&gt;&lt;div&gt;&lt;br&gt;&lt;/div&gt;&lt;div&gt;&lt;br&gt;&lt;/div&gt;&lt;div&gt;I assume this is your first time in joining cyber security competitions. The competitions you can join to strengthen your expertise and get recognizable certification including:&lt;/div&gt;&lt;div&gt;&amp;gt;&amp;gt; Capture The Flag&lt;/div&gt;&lt;div&gt;&amp;gt;&amp;gt; Bug Bounty&lt;/div&gt;&lt;div&gt;&amp;gt;&amp;gt; Cyber Security Academy Research programs&lt;/div&gt;&lt;div&gt;&amp;gt;&amp;gt; Hackathon&lt;/div&gt;" style="rounded=0;whiteSpace=wrap;html=1;align=left;strokeColor=#B5739D;strokeWidth=3;" vertex="1" parent="A1eO21Q65lQMXS6giFi2-46">
          <mxGeometry y="420" width="360" height="210" as="geometry" />
        </mxCell>
        <mxCell id="A1eO21Q65lQMXS6giFi2-41" value="&lt;div&gt;&lt;span style=&quot;font-size: 15px;&quot;&gt;&lt;b&gt;Internship(s) focusing in cyber security&lt;/b&gt;&lt;/span&gt;&lt;/div&gt;&lt;div&gt;&lt;br&gt;&lt;/div&gt;&lt;div&gt;&lt;br&gt;&lt;/div&gt;&lt;div&gt;Because the end-goal is to master in Digital Forensics and Incident Response and apart of the &#39;academic&#39; learning, this internship is to understand and familiarize yourself in real-world scenario where everything runs dynamically and unexpected.&lt;/div&gt;&lt;div&gt;&lt;br&gt;&lt;/div&gt;&lt;div&gt;Things you must consider before applying internships at companies are:&lt;br&gt;&amp;gt;&amp;gt; program&#39;s orientation to DFIR field&lt;/div&gt;&lt;div&gt;&amp;gt;&amp;gt; length, objective, and benefit of the program&lt;/div&gt;&lt;div&gt;&amp;gt;&amp;gt; scale of the company&lt;/div&gt;&lt;div&gt;&amp;gt;&amp;gt; prestigious-level of the company&lt;/div&gt;" style="rounded=0;whiteSpace=wrap;html=1;align=left;strokeColor=#4C0099;strokeWidth=3;" vertex="1" parent="A1eO21Q65lQMXS6giFi2-46">
          <mxGeometry x="370" y="420" width="350" height="210" as="geometry" />
        </mxCell>
        <mxCell id="A1eO21Q65lQMXS6giFi2-42" value="&lt;div&gt;&lt;span style=&quot;font-size: 15px;&quot;&gt;&lt;b&gt;DFIR certifications while having job(s)&lt;/b&gt;&lt;/span&gt;&lt;/div&gt;&lt;div&gt;&lt;span style=&quot;font-size: 15px;&quot;&gt;&lt;b&gt;&lt;br&gt;&lt;/b&gt;&lt;/span&gt;&lt;/div&gt;&lt;div&gt;&lt;br&gt;&lt;/div&gt;&lt;div&gt;You can apply to real professional career in DFIR field once you have graduated from a university because you have owned recognizable DFIR certifications and have long-consistent experience oriented for cyber security.&lt;/div&gt;" style="rounded=0;whiteSpace=wrap;html=1;align=left;strokeColor=#663300;strokeWidth=3;" vertex="1" parent="A1eO21Q65lQMXS6giFi2-46">
          <mxGeometry x="730" y="420" width="390" height="210" as="geometry" />
        </mxCell>
        <mxCell id="2m5ZMW3eq1_i2xvB7QHv-2" value="&lt;span style=&quot;font-size: 15px;&quot;&gt;&lt;b&gt;Words to notice!&lt;/b&gt;&lt;/span&gt;&lt;div&gt;&lt;span style=&quot;font-size: 15px;&quot;&gt;&lt;b&gt;&lt;br&gt;&lt;/b&gt;&lt;/span&gt;&lt;div&gt;&lt;span style=&quot;font-size: 15px;&quot;&gt;&lt;b&gt;&lt;br&gt;&lt;/b&gt;&lt;/span&gt;&lt;/div&gt;&lt;div&gt;## Becomes a polyglot by learning foreign languages: English or Mandarin or Russian or any or combinations of them.&lt;/div&gt;&lt;div&gt;## Each interval time in the road map includes learning theory and practice.&lt;/div&gt;&lt;div&gt;## You can also apply to boot-camps oriented to this cyber security fields and/or attend the conference.&lt;/div&gt;&lt;div&gt;## If you are already familiar or have excellent understanding in the domains, you can combine the subjects at a time.&lt;/div&gt;&lt;/div&gt;" style="rounded=0;whiteSpace=wrap;html=1;align=left;strokeColor=#333333;strokeWidth=3;" vertex="1" parent="2m5ZMW3eq1_i2xvB7QHv-6">
          <mxGeometry x="420" y="640" width="700" height="130" as="geometry" />
        </mxCell>
        <mxCell id="2m5ZMW3eq1_i2xvB7QHv-3" value="&lt;span style=&quot;font-size: 15px;&quot;&gt;&lt;b&gt;Learning DFIR by earning certifications&lt;/b&gt;&lt;/span&gt;&lt;div&gt;&lt;span style=&quot;font-size: 15px;&quot;&gt;&lt;b&gt;&lt;br&gt;&lt;/b&gt;&lt;/span&gt;&lt;div&gt;&lt;span style=&quot;font-size: 15px;&quot;&gt;&lt;b&gt;&lt;br&gt;&lt;/b&gt;&lt;/span&gt;&lt;/div&gt;&lt;div&gt;CertNexus CyberSec First Responder&lt;span style=&quot;white-space: pre;&quot;&gt;&#x9;&lt;/span&gt;&lt;span style=&quot;white-space: pre;&quot;&gt;&#x9;&lt;/span&gt;&lt;span style=&quot;white-space: pre;&quot;&gt;&#x9;&lt;/span&gt;&lt;span style=&quot;white-space: pre;&quot;&gt;&#x9;&lt;/span&gt;GIAC Experienced Forensics Analyst (GX-FA)&lt;/div&gt;&lt;/div&gt;&lt;div&gt;GIAC iOS and macOS Examiner (GIME)&lt;span style=&quot;white-space: pre;&quot;&gt;&#x9;&lt;/span&gt;&lt;span style=&quot;white-space: pre;&quot;&gt;&#x9;&lt;/span&gt;&lt;span style=&quot;white-space: pre;&quot;&gt;&#x9;&lt;/span&gt;GIAC Reverse Engineering Malware (GREM)&lt;/div&gt;&lt;div&gt;GIAC Certified Forensics Examiner (GCFE)&lt;span style=&quot;white-space: pre;&quot;&gt;&#x9;&lt;/span&gt;&lt;span style=&quot;white-space: pre;&quot;&gt;&#x9;&lt;/span&gt;&lt;span style=&quot;white-space: pre;&quot;&gt;&#x9;&lt;/span&gt;GIAC Response and Industrial Defense (GRID)&lt;/div&gt;&lt;div&gt;GIAC Advanced Smartphone Forensics (GASF)&lt;span style=&quot;white-space: pre;&quot;&gt;&#x9;&lt;/span&gt;&lt;span style=&quot;white-space: pre;&quot;&gt;&#x9;&lt;/span&gt;GIAC Linux Incident Responder (GLIR)&lt;/div&gt;&lt;div&gt;GIAC Enterprise Incident Response (GEIR)&lt;span style=&quot;white-space: pre;&quot;&gt;&#x9;&lt;/span&gt;&lt;span style=&quot;white-space: pre;&quot;&gt;&#x9;&lt;/span&gt;&lt;span style=&quot;white-space: pre;&quot;&gt;&#x9;&lt;/span&gt;GIAC Cloud Forensics Responder (GCFR)&lt;/div&gt;&lt;div&gt;GIAC Certified Forensics Analyst (GCFA)&lt;span style=&quot;white-space: pre;&quot;&gt;&#x9;&lt;/span&gt;&lt;span style=&quot;white-space: pre;&quot;&gt;&#x9;&lt;/span&gt;&lt;span style=&quot;white-space: pre;&quot;&gt;&#x9;&lt;/span&gt;GIAC Cloud Threat Detection (GCFR)&lt;/div&gt;&lt;div&gt;GIAC Cyber Threat Intelligent (GCTI)&lt;span style=&quot;white-space: pre;&quot;&gt;&#x9;&lt;/span&gt;&lt;span style=&quot;white-space: pre;&quot;&gt;&#x9;&lt;/span&gt;&lt;span style=&quot;white-space: pre;&quot;&gt;&#x9;&lt;/span&gt;&lt;span style=&quot;white-space: pre;&quot;&gt;&#x9;&lt;/span&gt;GIAC Certified Incident Handler (GCIH)&lt;/div&gt;&lt;div&gt;GIAC Certified Incident Handler (GCTI)&lt;span style=&quot;white-space: pre;&quot;&gt;&#x9;&lt;/span&gt;&lt;span style=&quot;white-space: pre;&quot;&gt;&#x9;&lt;/span&gt;&lt;span style=&quot;white-space: pre;&quot;&gt;&#x9;&lt;/span&gt;&lt;span style=&quot;white-space: pre;&quot;&gt;&#x9;&lt;/span&gt;GIAC Experienced Incident Handler (GX-IH)&lt;/div&gt;&lt;div&gt;GIAC Network Forensics Analyst (GNFA)&lt;span style=&quot;white-space: pre;&quot;&gt;&#x9;&lt;/span&gt;&lt;span style=&quot;white-space: pre;&quot;&gt;&#x9;&lt;/span&gt;&lt;span style=&quot;white-space: pre;&quot;&gt;&#x9;&lt;/span&gt;GIAC Exploit Researcher and Advanced Penetration Tester (GXPN)&lt;/div&gt;" style="rounded=0;whiteSpace=wrap;html=1;align=left;strokeColor=#FF0080;strokeWidth=3;" vertex="1" parent="2m5ZMW3eq1_i2xvB7QHv-6">
          <mxGeometry x="420" y="780" width="700" height="210" as="geometry" />
        </mxCell>
        <mxCell id="2m5ZMW3eq1_i2xvB7QHv-7" value="" style="endArrow=none;html=1;rounded=0;startArrow=classic;startFill=1;strokeWidth=3;strokeColor=#FF0080;" edge="1" parent="1">
          <mxGeometry width="50" height="50" relative="1" as="geometry">
            <mxPoint x="990" y="-530" as="sourcePoint" />
            <mxPoint x="990" y="-480" as="targetPoint" />
          </mxGeometry>
        </mxCell>
        <mxCell id="2m5ZMW3eq1_i2xvB7QHv-8" value="having professional career" style="endArrow=classic;startArrow=classic;html=1;rounded=0;fontSize=12;" edge="1" parent="1">
          <mxGeometry x="0.0084" width="50" height="50" relative="1" as="geometry">
            <mxPoint x="860" y="-560" as="sourcePoint" />
            <mxPoint x="1080" y="-560" as="targetPoint" />
            <mxPoint as="offset" />
          </mxGeometry>
        </mxCell>
      </root>
    </mxGraphModel>
  </diagram>
  <diagram id="JrgJaZFvivnZpGfngmk5" name="Page-5">
    <mxGraphModel grid="1" page="1" gridSize="10" guides="1" tooltips="1" connect="1" arrows="1" fold="1" pageScale="1" pageWidth="1169" pageHeight="827" math="0" shadow="0">
      <root>
        <mxCell id="0" />
        <mxCell id="1" parent="0" />
      </root>
    </mxGraphModel>
  </diagram>
</mxfile>
